<?xml version="1.0" encoding="UTF-8" standalone="no"?> <!-- Created with Vectornator for iOS (http://vectornator.io/) --><!DOCTYPE svg PUBLIC "-//W3C//DTD SVG 1.1//EN" "http://www.w3.org/Graphics/SVG/1.1/DTD/svg11.dtd">
<svg xmlns:xlink="http://www.w3.org/1999/xlink" viewBox="0 0 512 512" xmlns="http://www.w3.org/2000/svg" version="1.1" xmlns:vectornator="http://vectornator.io" height="100%" xml:space="preserve" width="100%" style="fill-rule:nonzero;clip-rule:evenodd;stroke-linecap:round;stroke-linejoin:round;">
<metadata>
<vectornator:setting key="IsTimeLapseWatermarkDisabled" value="false"/>
<vectornator:setting key="WDIsolateActiveLayer" value="false"/>
<vectornator:setting value="false" key="WDCMYKEnabledKey"/>
<vectornator:setting value="true" key="WDGuidesVisible"/>
<vectornator:setting key="VNSnapToGuides" value="true"/>
<vectornator:setting key="WDDisplayWhiteBackground" value="false"/>
<vectornator:setting key="WDSnapToGrid" value="false"/>
<vectornator:setting key="WDOutlineMode" value="false"/>
<vectornator:setting key="WDSnapToEdges" value="false"/>
<vectornator:setting key="UndoHistoryDisabled" value="false"/>
<vectornator:setting key="WDUnits" value="Pixels"/>
<vectornator:setting value="true" key="WDRulersVisible"/>
<vectornator:setting value="true" key="VNDimensionsVisible"/>
<vectornator:setting key="WDSnapToPoints" value="false"/>
<vectornator:setting key="WDDynamicGuides" value="false"/>
<vectornator:setting value="false" key="VNPencilOnly"/>
</metadata>
<defs/>
<g id="Layer 1" vectornator:layerName="Layer 1">
<g opacity="1">
<path d="M110.932+212.155C115.504+210.229+117.64+204.968+115.717+200.405C113.795+195.841+108.539+193.694+103.967+195.62C103.128+195.963+99.9784+196.735+97.2034+197.427C87.6142+199.783+69.7745+204.182+47.3117+213.645C42.7397+215.571+40.6044+220.831+42.5268+225.395C44.4493+229.959+49.7051+232.106+54.277+230.18C75.4419+221.264+91.7489+217.247+101.494+214.846C106.079+213.713+108.857+213.029+110.932+212.155Z" stroke-width="2" fill="#ff8d26" stroke-linecap="butt" stroke-linejoin="round" opacity="1" stroke="#000000"/>
<path stroke-linecap="butt" fill="#ff8d26" stroke="#000000" stroke-linejoin="round" stroke-width="2" d="M103.967+195.62C106.133+194.707+108.423+191.893+111.324+188.335C117.276+181.019+125.421+171.007+143.039+163.585C176.192+149.62+200.193+174.982+210.448+185.809C211.502+186.923+212.423+187.908+212.769+188.268C216.09+191.113+223.197+194.398+228.907+197.045C231.495+198.243+233.653+199.251+235.467+200.161C241.144+195.774+246.7+191.448+252.158+187.212C298.308+151.32+338.169+120.326+385.153+100.534C433.064+80.3515+459.434+78.1308+460.525+78.041C463.495+77.812+466.404+79.0787+468.249+81.4261C470.095+83.7735+470.665+86.8822+469.752+89.7297C446.889+161.146+375.393+232.032+351.007+248.067C344.854+252.363+338.136+256.059+331.051+259.044C318.584+264.295+306.661+266.68+297.262+267.709C313.138+292.201+318.873+324.742+319.947+331.659L362.813+431.108C363.819+433.449+363.794+436.117+362.714+438.431C361.528+440.975+354.098+454.326+323.508+467.212C296.688+478.51+273.377+466.154+272.394+465.624C269.567+464.089+267.781+461.142+267.713+457.93L265.661+362.081C247.341+355.819+195.639+334.669+177.003+290.43C171.211+276.681+166.139+260.458+164.076+252.994C162.467+252.202+158.993+251.212+156.344+250.469C145.866+247.504+130.024+243.012+121.382+227.533C116.89+219.896+106.886+213.665+103.433+211.916M155.274+204.184C158.019+203.028+159.298+199.87+158.145+197.134C156.989+194.389+153.84+193.107+151.095+194.263C148.35+195.419+147.071+198.576+148.224+201.313C149.377+204.05+152.529+205.34+155.274+204.184Z" opacity="1"/>
<path stroke-width="2" d="M402.999+74.3551C395.438+77.0435+387.175+80.2128+378.188+83.9985C329.013+104.713+288.296+136.38+241.147+173.043L239.767+174.111C237.582+175.81+235.38+177.516+233.174+179.234C230.817+178.124+228.144+176.817+226.278+175.783C253.342+137.125+303.708+76.8337+370.411+48.7355C378.248+45.4339+386.215+42.6232+394.092+40.3856C396.865+39.597+399.85+40.1892+402.11+41.9726C404.37+43.756+405.642+46.5203+405.514+49.4068C405.109+58.4748+404.246+66.733+402.999+74.3551Z" stroke="#000000" stroke-linecap="butt" opacity="1" fill="#ff8d26" stroke-linejoin="round"/>
<path opacity="1" d="M92.9281+177.321C88.4251+177.321+84.76+185.115+84.7607+194.712C84.7607+196.757+85.0777+198.602+85.4108+200.401C86.2319+200.138+86.9689+200.167+87.7269+199.995C87.3002+198.338+86.9144+196.617+86.9143+194.59C86.9143+187.441+89.595+181.669+92.9281+181.669C96.261+181.669+98.9418+187.441+98.9419+194.59C98.9419+195.459+98.815+196.213+98.7387+197.028C99.5053+196.775+100.223+196.667+100.933+196.541C100.965+195.913+101.096+195.358+101.095+194.712L101.095+191.705C101.095+187.927+102.492+184.879+104.265+184.879C106.038+184.879+107.474+187.927+107.475+191.705L107.475+194.712C107.475+204.309+111.099+212.104+115.602+212.103C120.105+212.103+123.77+204.309+123.769+194.712C123.769+185.115+120.105+177.321+115.602+177.321C112.694+177.321+110.148+180.577+108.694+185.488C107.737+182.39+106.109+180.369+104.265+180.368C102.421+180.368+100.792+182.39+99.8358+185.488C98.3821+180.576+95.8356+177.321+92.9281+177.321ZM115.602+181.669C118.935+181.669+121.656+187.441+121.656+194.59C121.656+201.74+118.935+207.553+115.602+207.552C112.269+207.552+109.588+201.74+109.588+194.59C109.588+187.441+112.269+181.669+115.602+181.669Z" fill="#000000"/>
<g opacity="1">
<path fill="#ff8d26" opacity="1" d="M103.237+195.923C103.578+195.923+103.894+195.842+104.212+195.721C104.312+195.683+104.426+195.522+104.506+195.593C104.578+195.657+104.378+195.739+104.302+195.798C104.255+195.835+103.427+196.452+103.429+196.459C103.448+196.543+103.898+196.363+103.96+196.359"/>
<path d="M103.188+195C102.686+195.036+102.308+195.499+102.344+196C102.38+196.501+102.811+196.88+103.312+196.844C103.641+196.608+103.68+196.491+103.625+196.594C103.597+196.646+103.628+196.748+103.688+196.75C103.815+196.755+104.71+196.351+104.719+196.156C104.721+196.115+104.56+196.219+104.438+196.188C104.439+196.177+104.436+196.166+104.438+196.156C104.77+196.043+105.108+195.885+105+195.469C104.993+195.443+104.978+195.429+104.969+195.406C104.98+195.4+104.981+195.37+104.969+195.375C104.983+195.336+104.916+195.261+104.875+195.219C104.861+195.204+104.664+195.107+104.562+195.062C104.563+195.042+104.562+195.02+104.562+195C104.572+194.91+104.106+195.043+104.062+195.062C104.017+195.083+103.896+195.154+103.938+195.125C104.008+195.075+103.774+195.035+103.688+195.031C103.611+195.028+103.451+194.956+103.438+195.031C103.4+195.249+103.462+195.021+103.188+195Z" opacity="1" fill="#000000"/>
</g>
<path opacity="1" stroke-width="2" stroke-linejoin="round" fill="none" d="M103.827+195.686L103.827+195.692L103.827+195.695L103.827+195.699L103.827+195.704L103.827+195.708L103.827+195.714L103.827+195.717L103.827+195.722L103.827+195.725L103.827+195.727L103.827+195.729L103.827+195.726L103.827+195.724L103.825+195.721L103.824+195.719L103.824+195.715L103.824+195.713L103.824+195.71L103.824+195.707L103.824+195.701L103.824+195.701" stroke-linecap="round" stroke="#000000"/>
<path stroke-width="2" d="M101.403+211.482C101.693+211.482+102.041+211.126+102.35+211.043C103.242+210.803+104.254+210.661+105.162+210.648C105.602+210.642+106.14+210.558+106.55+210.737C106.706+210.804+106.813+210.957+106.967+211.035C106.976+211.04+107.116+211.136+107.116+211.137C107.105+211.146+105.491+210.929+105.308+210.9C104.325+210.745+102.452+211.126+101.646+211.723C100.86+212.305+102.672+211.827+102.992+211.656C103.113+211.591+103.266+211.565+103.402+211.535C103.483+211.518+103.735+211.523+103.652+211.523C103.083+211.523+102.775+211.687+102.775+211.834C102.775+211.881+102.777+211.871+102.793+211.849C102.897+211.705+104.029+211.494+104.186+211.467C105.689+211.214+107.249+211.154+108.775+211.237C109.225+211.262+111.256+211.456+111.536+211.786C111.545+211.798+111.584+211.843+111.566+211.863C111.44+212.008+110.465+211.786+110.429+211.782C109.554+211.688+108.675+211.655+107.813+211.51C105.543+211.129+103.014+211.488+100.867+212.148" stroke-linecap="round" stroke="#ff8d26" opacity="1" fill="none" stroke-linejoin="round"/>
</g>
</g>
</svg>
