<?xml version="1.0" encoding="UTF-8" standalone="no"?> <!-- Created with Vectornator for iOS (http://vectornator.io/) --><!DOCTYPE svg PUBLIC "-//W3C//DTD SVG 1.1//EN" "http://www.w3.org/Graphics/SVG/1.1/DTD/svg11.dtd">
<svg xml:space="preserve" height="100%" xmlns="http://www.w3.org/2000/svg" width="100%" style="fill-rule:nonzero;clip-rule:evenodd;stroke-linecap:round;stroke-linejoin:round;" version="1.1" xmlns:vectornator="http://vectornator.io" xmlns:xlink="http://www.w3.org/1999/xlink" viewBox="0 0 1920 1080">
<metadata>
<vectornator:setting key="VNDimensionsVisible" value="true"/>
<vectornator:setting value="true" key="VNSnapToGuides"/>
<vectornator:setting value="false" key="IsTimeLapseWatermarkDisabled"/>
<vectornator:setting value="false" key="WDSnapToGrid"/>
<vectornator:setting key="WDDisplayWhiteBackground" value="false"/>
<vectornator:setting value="false" key="WDOutlineMode"/>
<vectornator:setting value="false" key="WDIsolateActiveLayer"/>
<vectornator:setting key="WDSnapToPoints" value="false"/>
<vectornator:setting key="WDCMYKEnabledKey" value="false"/>
<vectornator:setting value="false" key="UndoHistoryDisabled"/>
<vectornator:setting key="WDRulersVisible" value="true"/>
<vectornator:setting key="WDDynamicGuides" value="true"/>
<vectornator:setting key="WDGuidesVisible" value="true"/>
<vectornator:setting key="WDSnapToEdges" value="false"/>
<vectornator:setting value="Pixels" key="WDUnits"/>
<vectornator:setting value="false" key="VNPencilOnly"/>
</metadata>
<defs/>
<g vectornator:layerName="Layer 1" id="Layer 1">
<g opacity="1">
<path fill="#318013" opacity="1" d="M753.121+781.095L864.481+540L985.029+540L809.352+881.061L809.352+1075.11L697.258+1075.11L697.258+881.061L521.582+540L642.497+540L753.121+781.095Z" stroke-linecap="round" stroke-linejoin="round" stroke="#000000" stroke-width="2"/>
<path stroke-linecap="round" fill="#318013" stroke="#000000" opacity="1" d="M1040.3+1075.11C1036.47+1067.64+1033.69+1058.36+1031.97+1047.25C1011.86+1069.66+985.718+1080.86+953.543+1080.86C923.092+1080.86+897.86+1072.05+877.847+1054.43C857.834+1036.81+847.827+1014.6+847.827+987.783C847.827+954.843+860.036+929.563+884.454+911.944C908.873+894.324+944.159+885.419+990.314+885.227L1028.52+885.227L1028.52+867.417C1028.52+853.053+1024.83+841.562+1017.46+832.944C1010.09+824.326+998.453+820.017+982.558+820.017C968.577+820.017+957.613+823.368+949.665+830.071C941.717+836.774+937.743+845.967+937.743+857.649L854.722+857.649C854.722+839.647+860.276+822.985+871.384+807.664C882.491+792.343+898.196+780.325+918.496+771.612C938.797+762.898+961.587+758.541+986.867+758.541C1025.17+758.541+1055.57+768.164+1078.08+787.411C1100.58+806.659+1111.83+833.71+1111.83+868.566L1111.83+1003.3C1112.02+1032.79+1116.14+1055.1+1124.18+1070.23L1124.18+1075.11L1040.3+1075.11ZM965.641+1017.37C977.898+1017.37+989.198+1014.64+999.539+1009.18C1009.88+1003.73+1017.54+996.401+1022.52+987.209L1022.52+933.776L991.496+933.776C949.937+933.776+927.817+948.14+925.136+976.867L924.849+981.751C924.849+992.092+928.488+1000.61+935.765+1007.32C943.043+1014.02+953.001+1017.37+965.641+1017.37Z" stroke-width="2" stroke-linejoin="round"/>
<path d="M1159+1075.11L1159+825.188L1112.75+825.188L1112.75+764.286L1159+764.286L1159+737.857C1159+703.002+1169+675.95+1189.02+656.703C1209.03+637.456+1237.04+627.832+1273.04+627.832C1284.53+627.832+1298.61+629.747+1315.27+633.578L1314.41+697.926C1307.52+696.203+1299.09+695.341+1289.13+695.341C1257.91+695.341+1242.31+709.992+1242.31+739.294L1242.31+764.286L1344.57+764.286L1344.57+741.017C1344.77+704.438+1356.11+676.429+1378.62+656.99C1401.12+637.552+1432.57+627.832+1472.98+627.832C1500.56+627.832+1547.48+630.896+1613.75+637.025L1613.75+1075.11L1530.44+1075.11L1530.44+698.214C1513.97+696.299+1498.55+695.341+1484.19+695.341C1446.65+695.341+1427.88+711.332+1427.88+743.315L1427.88+764.286L1489.65+764.286L1489.65+825.188L1427.88+825.188L1427.88+1075.11L1344.57+1075.11L1344.57+825.188L1242.31+825.188L1242.31+1075.11L1159+1075.11Z" stroke-linecap="round" stroke-width="2" fill="#318013" stroke="#000000" stroke-linejoin="round" opacity="1"/>
<path stroke-width="2" fill="#318013" stroke-linejoin="round" stroke-linecap="round" d="M1792.16+1080.86C1746.58+1080.86+1709.48+1066.88+1680.85+1038.92C1652.22+1010.96+1637.9+973.707+1637.9+927.169L1637.9+919.125C1637.9+887.909+1643.93+859.995+1656+835.386C1668.06+810.776+1685.16+791.816+1707.28+778.506C1729.4+765.196+1754.63+758.541+1782.97+758.541C1825.49+758.541+1858.95+771.947+1883.37+798.759C1907.79+825.571+1920+863.586+1920+912.805L1920+946.703L1722.07+946.703C1724.75+967.004+1732.84+983.283+1746.34+995.54C1759.85+1007.8+1776.94+1013.92+1797.62+1013.92C1829.61+1013.92+1854.6+1002.34+1872.6+979.165L1913.39+1024.84C1900.94+1042.46+1884.09+1056.2+1862.83+1066.06C1841.57+1075.93+1818.02+1080.86+1792.16+1080.86ZM1782.68+825.762C1766.21+825.762+1752.86+831.316+1742.61+842.424C1732.36+853.532+1725.8+869.427+1722.93+890.111L1838.41+890.111L1838.41+883.504C1838.03+865.118+1833.05+850.898+1823.48+840.844C1813.9+830.789+1800.3+825.762+1782.68+825.762Z" stroke="#000000" opacity="1"/>
</g>
<g opacity="1">
<path opacity="1" stroke-width="2" stroke-linejoin="round" stroke-linecap="butt" stroke="#000000" d="M86.5445+755.525C92.2696+753.113+94.9436+746.525+92.5362+740.811C90.1289+735.096+83.5473+732.407+77.8222+734.819C76.7722+735.249+72.8276+736.216+69.3527+737.082C57.3447+740.032+35.0051+745.541+6.87627+757.391C1.15111+759.802-1.52286+766.39+0.884493+772.105C3.29184+777.82+9.87339+780.508+15.5985+778.096C42.102+766.932+62.5224+761.902+74.7255+758.894C80.4667+757.475+83.9459+756.619+86.5445+755.525Z" fill="#ff8d26"/>
<path fill="#ff8d26" stroke="#000000" d="M77.8222+734.819C80.5346+733.676+83.402+730.152+87.0349+725.696C94.488+716.535+104.688+703.998+126.75+694.704C168.265+677.216+198.32+708.976+211.162+722.534C212.481+723.929+213.635+725.162+214.069+725.613C218.227+729.176+227.127+733.289+234.277+736.604C237.518+738.103+240.22+739.367+242.492+740.506C249.6+735.013+256.558+729.595+263.393+724.29C321.184+679.345+371.099+640.533+429.935+615.748C489.93+590.475+522.952+587.695+524.319+587.582C528.038+587.296+531.68+588.882+533.991+591.821C536.302+594.761+537.016+598.654+535.872+602.219C507.243+691.649+417.713+780.416+387.176+800.496C379.47+805.875+371.058+810.503+362.186+814.241C346.574+820.817+331.643+823.803+319.874+825.092C339.754+855.762+346.936+896.511+348.281+905.173L401.959+1029.71C403.219+1032.64+403.188+1035.98+401.836+1038.88C400.35+1042.06+391.046+1058.78+352.74+1074.92C319.155+1089.07+289.964+1073.59+288.734+1072.93C285.194+1071.01+282.957+1067.32+282.871+1063.29L280.302+943.268C257.361+935.427+192.617+908.942+169.281+853.544C162.028+836.327+155.677+816.012+153.093+806.666C151.078+805.674+146.728+804.434+143.411+803.503C130.29+799.79+110.453+794.165+99.6303+774.783C94.0045+765.218+81.4775+757.415+77.1542+755.226M142.071+745.543C145.508+744.095+147.11+740.142+145.666+736.715C144.218+733.278+140.275+731.672+136.838+733.12C133.4+734.568+131.799+738.521+133.243+741.948C134.686+745.375+138.634+746.991+142.071+745.543Z" stroke-linecap="butt" opacity="1" stroke-linejoin="round" stroke-width="2"/>
<path opacity="1" stroke="#000000" stroke-width="2" stroke-linecap="butt" fill="#ff8d26" d="M452.282+582.967C442.814+586.333+432.466+590.302+421.213+595.042C359.634+620.983+308.646+660.636+249.604+706.547L247.876+707.885C245.14+710.013+242.383+712.149+239.62+714.301C236.67+712.91+233.322+711.273+230.985+709.978C264.875+661.57+327.946+586.07+411.474+550.885C421.288+546.75+431.264+543.231+441.128+540.429C444.601+539.441+448.338+540.183+451.169+542.416C453.999+544.649+455.591+548.111+455.431+551.725C454.924+563.081+453.844+573.422+452.282+582.967Z" stroke-linejoin="round"/>
<path d="M63.9989+711.905C58.3601+711.905+53.7705+721.665+53.7714+733.683C53.7714+736.243+54.1684+738.553+54.5855+740.806C55.6138+740.477+56.5366+740.513+57.4859+740.297C56.9515+738.223+56.4683+736.068+56.4682+733.53C56.4682+724.577+59.8252+717.349+63.9989+717.349C68.1725+717.349+71.5296+724.577+71.5297+733.53C71.5297+734.618+71.3707+735.561+71.2752+736.583C72.2352+736.266+73.1338+736.131+74.0229+735.972C74.0634+735.186+74.2265+734.492+74.2265+733.683L74.2265+729.917C74.2265+725.186+75.9753+721.369+78.1954+721.369C80.4154+721.369+82.2141+725.186+82.2151+729.917L82.2151+733.683C82.2151+745.7+86.7533+755.461+92.3918+755.461C98.0306+755.461+102.62+745.7+102.619+733.683C102.619+721.665+98.0307+711.904+92.3918+711.905C88.751+711.905+85.5621+715.981+83.7416+722.132C82.5428+718.252+80.504+715.721+78.1954+715.721C75.8866+715.721+73.8469+718.252+72.6491+722.132C70.8287+715.981+67.6399+711.904+63.9989+711.905ZM92.3918+717.349C96.5654+717.349+99.9733+724.577+99.9734+733.53C99.9734+742.482+96.5655+749.762+92.3918+749.762C88.2182+749.762+84.861+742.482+84.8611+733.53C84.8611+724.577+88.2182+717.349+92.3918+717.349Z" opacity="1" fill="#000000"/>
<g opacity="1">
<path opacity="1" d="M76.9086+735.198C77.3355+735.198+77.7311+735.098+78.1293+734.946C78.2545+734.899+78.397+734.696+78.4971+734.785C78.5875+734.865+78.3372+734.968+78.2421+735.042C78.1833+735.088+77.1459+735.861+77.148+735.87C77.1729+735.976+77.7364+735.749+77.8136+735.745" fill="#ff8d26"/>
<path fill="#000000" d="M78.3438+734.219C78.1628+734.225+78.0097+734.294+77.875+734.281C77.7517+734.269+77.6238+734.276+77.5+734.281C77.3964+734.286+77.2134+734.212+77.1875+734.312C77.1275+734.545+77.203+734.296+76.8438+734.281C76.3424+734.317+75.9642+734.749+76+735.25C76.0358+735.751+76.4674+736.13+76.9688+736.094C77.3891+735.914+78.2827+735.21+77.4062+735.938C77.1426+736.156+78.191+735.733+78.375+735.625C78.457+735.577+78.5302+735.506+78.5938+735.438C78.8866+735.296+79.108+735.069+79.0625+734.719C79.0568+734.675+79.0666+734.565+79.0312+734.531C78.7537+734.265+78.5247+734.212+78.3438+734.219Z" opacity="1"/>
</g>
<path d="M77.6468+734.902L77.6468+734.91L77.6468+734.913L77.6468+734.918L77.6468+734.924L77.6468+734.929L77.6468+734.937L77.6468+734.941L77.6468+734.947L77.6468+734.95L77.6468+734.954L77.6468+734.955L77.6468+734.952L77.6468+734.95L77.6442+734.946L77.6433+734.943L77.6433+734.938L77.6433+734.936L77.6433+734.932L77.6433+734.928L77.6433+734.921L77.6433+734.921" stroke-width="2" stroke-linejoin="round" stroke-linecap="round" fill="none" stroke="#000000" opacity="1"/>
<path stroke-linecap="round" stroke-width="2" stroke="#ff8d26" d="M74.612+754.682C74.9744+754.682+75.4107+754.237+75.7971+754.133C76.9139+753.832+78.1815+753.654+79.3187+753.638C79.8696+753.631+80.5435+753.525+81.0574+753.749C81.2523+753.834+81.3857+754.025+81.5793+754.123C81.5903+754.128+81.766+754.249+81.765+754.25C81.7516+754.262+79.7302+753.99+79.502+753.954C78.2711+753.759+75.9251+754.236+74.9161+754.984C73.9322+755.713+76.2011+755.114+76.6016+754.9C76.7535+754.818+76.9447+754.786+77.1143+754.749C77.2164+754.727+77.5319+754.734+77.4274+754.734C76.7149+754.734+76.3293+754.94+76.3293+755.123C76.3293+755.182+76.3324+755.17+76.3527+755.141C76.4824+754.962+77.8994+754.697+78.096+754.664C79.9783+754.346+81.9319+754.272+83.8431+754.376C84.406+754.407+86.9502+754.65+87.3002+755.064C87.3124+755.078+87.3606+755.135+87.3385+755.16C87.1803+755.341+85.9593+755.062+85.9146+755.058C84.8181+754.94+83.7174+754.899+82.6381+754.718C79.7959+754.241+76.6295+754.689+73.9403+755.516" opacity="1" fill="none" stroke-linejoin="round"/>
</g>
</g>
</svg>
