<?xml version="1.0" encoding="UTF-8" standalone="no"?> <!-- Created with Vectornator for iOS (http://vectornator.io/) --><!DOCTYPE svg PUBLIC "-//W3C//DTD SVG 1.1//EN" "http://www.w3.org/Graphics/SVG/1.1/DTD/svg11.dtd">
<svg viewBox="0 0 1024 1024" xmlns:xlink="http://www.w3.org/1999/xlink" xmlns:vectornator="http://vectornator.io" xmlns="http://www.w3.org/2000/svg" width="100%" version="1.1" style="fill-rule:nonzero;clip-rule:evenodd;stroke-linecap:round;stroke-linejoin:round;" xml:space="preserve" height="100%">
<metadata>
<vectornator:setting key="VNPencilOnly" value="false"/>
<vectornator:setting key="WDRulersVisible" value="true"/>
<vectornator:setting value="true" key="WDGuidesVisible"/>
<vectornator:setting key="WDDynamicGuides" value="false"/>
<vectornator:setting key="VNDimensionsVisible" value="true"/>
<vectornator:setting value="true" key="VNSnapToGuides"/>
<vectornator:setting value="false" key="WDIsolateActiveLayer"/>
<vectornator:setting key="WDOutlineMode" value="false"/>
<vectornator:setting key="UndoHistoryDisabled" value="false"/>
<vectornator:setting value="false" key="WDCMYKEnabledKey"/>
<vectornator:setting value="true" key="WDSnapToPoints"/>
<vectornator:setting key="WDUnits" value="Pixels"/>
<vectornator:setting key="IsTimeLapseWatermarkDisabled" value="false"/>
<vectornator:setting value="true" key="WDSnapToGrid"/>
<vectornator:setting key="WDDisplayWhiteBackground" value="false"/>
<vectornator:setting value="true" key="WDSnapToEdges"/>
</metadata>
<defs/>
<g id="Layer 1" vectornator:layerName="Layer 1">
<g opacity="1">
<path stroke-width="2" stroke-linecap="butt" d="M228.839+405.943C237.763+402.184+241.931+391.916+238.179+383.008C234.426+374.1+224.167+369.909+215.243+373.668C213.606+374.339+207.458+375.846+202.041+377.196C183.324+381.794+148.502+390.382+104.656+408.852C95.7324+412.611+91.5643+422.879+95.3168+431.787C99.0692+440.695+109.328+444.886+118.252+441.127C159.564+423.724+191.395+415.883+210.416+411.196C219.365+408.984+224.788+407.649+228.839+405.943Z" opacity="1" stroke-linejoin="round" fill="#ff8d26" stroke="#000000"/>
<path opacity="1" stroke-linecap="butt" stroke-width="2" stroke="#000000" d="M215.243+373.668C219.471+371.887+223.941+366.394+229.603+359.448C241.221+345.168+257.12+325.626+291.509+311.139C356.221+283.88+403.069+333.385+423.087+354.519C425.143+356.693+426.94+358.615+427.616+359.318C434.098+364.872+447.972+371.284+459.117+376.45C464.168+378.788+468.38+380.757+471.921+382.533C483.002+373.97+493.847+365.525+504.501+357.256C594.582+287.198+672.388+226.7+764.098+188.067C857.615+148.673+909.087+144.339+911.217+144.164C917.014+143.717+922.692+146.189+926.295+150.771C929.897+155.353+931.009+161.421+929.227+166.979C884.601+306.378+745.046+444.742+697.447+476.042C685.436+484.426+672.324+491.641+658.494+497.467C634.158+507.718+610.886+512.372+592.54+514.381C623.529+562.188+634.723+625.705+636.819+639.206L720.491+833.323C722.453+837.892+722.405+843.1+720.298+847.617C717.982+852.583+703.479+878.643+643.77+903.795C591.42+925.848+545.919+901.731+544.001+900.696C538.482+897.7+534.995+891.948+534.862+885.677L530.858+698.587C495.099+686.365+394.179+645.082+357.804+558.73C346.499+531.893+336.599+500.227+332.571+485.659C329.431+484.113+322.65+482.18+317.479+480.73C297.028+474.942+266.105+466.173+249.236+435.961C240.467+421.053+220.941+408.89+214.202+405.478M315.391+390.385C320.748+388.128+323.245+381.965+320.994+376.623C318.738+371.266+312.591+368.763+307.233+371.02C301.875+373.277+299.379+379.439+301.629+384.781C303.879+390.123+310.033+392.642+315.391+390.385Z" fill="#ff8d26" stroke-linejoin="round"/>
<path d="M798.93+136.969C784.172+142.217+768.043+148.403+750.502+155.792C654.516+196.226+575.039+258.036+483.008+329.6L480.314+331.685C476.049+335.002+471.751+338.332+467.445+341.685C462.846+339.518+457.628+336.966+453.985+334.948C506.811+259.491+605.123+141.807+735.321+86.9615C750.619+80.5171+766.169+75.0307+781.544+70.6631C786.957+69.1239+792.784+70.2799+797.195+73.7609C801.607+77.2418+804.089+82.6377+803.84+88.2718C803.05+105.972+801.365+122.091+798.93+136.969Z" stroke-linejoin="round" opacity="1" fill="#ff8d26" stroke-width="2" stroke="#000000" stroke-linecap="butt"/>
<path d="M193.696+337.95C184.907+337.95+177.753+353.164+177.754+371.897C177.754+375.888+178.373+379.489+179.023+383.001C180.626+382.488+182.064+382.543+183.544+382.208C182.711+378.974+181.958+375.615+181.958+371.659C181.958+357.704+187.19+346.437+193.696+346.437C200.202+346.437+205.434+357.704+205.435+371.659C205.435+373.354+205.187+374.825+205.038+376.418C206.534+375.923+207.935+375.713+209.321+375.466C209.384+374.24+209.638+373.158+209.638+371.897L209.638+366.028C209.638+358.653+212.364+352.703+215.825+352.703C219.285+352.703+222.089+358.652+222.091+366.028L222.091+371.897C222.091+390.629+229.164+405.844+237.953+405.843C246.743+405.843+253.897+390.629+253.896+371.897C253.896+353.164+246.743+337.95+237.953+337.95C232.278+337.95+227.308+344.305+224.47+353.893C222.601+347.845+219.423+343.899+215.825+343.899C212.226+343.899+209.047+347.845+207.18+353.893C204.342+344.305+199.371+337.95+193.696+337.95ZM237.953+346.437C244.459+346.437+249.771+357.704+249.771+371.659C249.771+385.614+244.459+396.96+237.953+396.96C231.448+396.96+226.215+385.614+226.215+371.659C226.215+357.704+231.448+346.437+237.953+346.437Z" opacity="1" fill="#000000"/>
<g opacity="1">
<path opacity="1" d="M213.819+374.26C214.485+374.26+215.101+374.103+215.722+373.867C215.917+373.793+216.139+373.477+216.295+373.615C216.436+373.74+216.046+373.9+215.898+374.016C215.806+374.088+214.189+375.292+214.192+375.307C214.231+375.471+215.109+375.118+215.23+375.111" fill="#ff8d26"/>
<path opacity="1" d="M215.875+373.062C215.566+373.115+215.247+373.242+214.875+373.281C214.634+373.306+214.584+373.328+214.344+373.344C214.257+373.349+214.078+373.259+214.094+373.344C214.154+373.662+214.077+373.351+213.781+373.344C213.279+373.362+212.888+373.779+212.906+374.281C212.924+374.783+213.341+375.175+213.844+375.156C214.157+375.144+214.038+375.159+214.156+375.156C214.124+375.196+214.074+375.221+214.062+375.25C214.008+375.391+214.202+375.333+214.312+375.344C214.31+375.362+214.316+375.358+214.344+375.406C214.346+375.409+214.372+375.377+214.375+375.375C214.703+375.347+215.163+375.167+215.125+375.156C214.938+375.105+215.11+375.168+215.219+375.125C215.218+375.124+215.22+375.093+215.219+375.094C215.119+374.973+215.204+375.067+215.125+374.969C215.225+374.915+215.311+374.863+215.406+374.812C215.612+374.702+217.458+373.964+216.812+373.344C216.483+373.027+216.184+373.01+215.875+373.062ZM215.031+375C215.056+375.044+215.105+375.078+215.125+375.125C215.153+375.19+214.976+375.145+214.906+375.156C214.845+375.166+214.78+375.178+214.719+375.188C214.731+375.181+214.738+375.163+214.75+375.156C214.842+375.106+214.932+375.054+215.031+375Z" fill="#000000"/>
</g>
<path fill="none" stroke-width="2" stroke-linejoin="round" d="M214.97+373.797L214.97+373.809L214.97+373.815L214.97+373.822L214.97+373.832L214.97+373.84L214.97+373.853L214.97+373.859L214.97+373.868L214.97+373.873L214.97+373.879L214.97+373.881L214.97+373.876L214.97+373.872L214.966+373.867L214.964+373.861L214.964+373.854L214.964+373.85L214.964+373.844L214.964+373.839L214.964+373.827L214.964+373.827" stroke="#000000" opacity="1" stroke-linecap="round"/>
<path fill="none" stroke-width="2" stroke-linecap="round" stroke="#ff8d26" d="M210.239+404.63C210.804+404.63+211.484+403.936+212.086+403.774C213.827+403.305+215.803+403.027+217.576+403.003C218.434+402.991+219.485+402.826+220.286+403.175C220.59+403.308+220.798+403.605+221.1+403.758C221.117+403.767+221.391+403.954+221.389+403.956C221.368+403.975+218.217+403.551+217.862+403.494C215.943+403.192+212.286+403.934+210.713+405.1C209.18+406.237+212.716+405.303+213.341+404.969C213.577+404.842+213.875+404.792+214.14+404.734C214.299+404.7+214.791+404.71+214.628+404.71C213.517+404.71+212.916+405.031+212.916+405.317C212.916+405.409+212.921+405.39+212.953+405.346C213.155+405.066+215.363+404.653+215.67+404.601C218.604+404.106+221.649+403.99+224.628+404.152C225.506+404.2+229.471+404.579+230.017+405.224C230.036+405.247+230.111+405.335+230.077+405.375C229.83+405.657+227.927+405.223+227.857+405.215C226.148+405.032+224.432+404.968+222.75+404.686C218.32+403.941+213.384+404.641+209.192+405.93" stroke-linejoin="round" opacity="1"/>
</g>
</g>
</svg>
