<?xml version="1.0" encoding="UTF-8" standalone="no"?> <!-- Created with Vectornator for iOS (http://vectornator.io/) --><!DOCTYPE svg PUBLIC "-//W3C//DTD SVG 1.1//EN" "http://www.w3.org/Graphics/SVG/1.1/DTD/svg11.dtd">
<svg version="1.1" xml:space="preserve" xmlns:vectornator="http://vectornator.io" style="fill-rule:nonzero;clip-rule:evenodd;stroke-linecap:round;stroke-linejoin:round;" xmlns:xlink="http://www.w3.org/1999/xlink" xmlns="http://www.w3.org/2000/svg" height="100%" width="100%" viewBox="0 0 250 150">
<metadata>
<vectornator:setting key="WDOutlineMode" value="false"/>
<vectornator:setting value="true" key="WDGuidesVisible"/>
<vectornator:setting key="WDDisplayWhiteBackground" value="false"/>
<vectornator:setting key="UndoHistoryDisabled" value="false"/>
<vectornator:setting value="true" key="WDRulersVisible"/>
<vectornator:setting value="false" key="WDIsolateActiveLayer"/>
<vectornator:setting key="WDCMYKEnabledKey" value="false"/>
<vectornator:setting key="WDUnits" value="Pixels"/>
<vectornator:setting key="WDSnapToGrid" value="false"/>
<vectornator:setting key="WDSnapToPoints" value="false"/>
<vectornator:setting value="false" key="WDSnapToEdges"/>
<vectornator:setting value="false" key="VNPencilOnly"/>
<vectornator:setting key="VNDimensionsVisible" value="true"/>
<vectornator:setting key="VNSnapToGuides" value="true"/>
<vectornator:setting key="IsTimeLapseWatermarkDisabled" value="false"/>
<vectornator:setting key="WDDynamicGuides" value="false"/>
</metadata>
<defs/>
<g vectornator:layerName="Layer 1" id="Layer 1">
<g opacity="1">
<path fill="#ff8d26" stroke-linecap="butt" stroke-width="2" stroke-linejoin="round" d="M76.3638+60.3002C77.8966+59.6545+78.6125+57.8908+77.968+56.3608C77.3235+54.8307+75.5614+54.1109+74.0286+54.7566C73.7474+54.8717+72.6913+55.1306+71.761+55.3625C68.5461+56.1522+62.565+57.6273+55.034+60.7998C53.5012+61.4455+52.7853+63.2092+53.4298+64.7392C54.0744+66.2692+55.8365+66.9891+57.3693+66.3434C64.4651+63.3543+69.9323+62.0075+73.1995+61.2023C74.7366+60.8225+75.6681+60.5933+76.3638+60.3002Z" opacity="1" stroke="#000000"/>
<path d="M74.0286+54.7566C74.7548+54.4506+75.5225+53.5072+76.4951+52.3142C78.4905+49.8613+81.2214+46.5047+87.1282+44.0165C98.2431+39.3344+106.29+47.8375+109.728+51.4674C110.081+51.8409+110.39+52.171+110.506+52.2918C111.619+53.2457+114.002+54.347+115.917+55.2344C116.784+55.6359+117.508+55.9742+118.116+56.2793C120.019+54.8085+121.882+53.358+123.712+51.9377C139.184+39.9043+152.548+29.5131+168.301+22.8775C184.363+16.1111+193.204+15.3666+193.57+15.3365C194.566+15.2597+195.541+15.6844+196.16+16.4714C196.779+17.2584+196.97+18.3007+196.664+19.2553C188.999+43.1987+165.028+66.9643+156.853+72.3404C154.79+73.7806+152.537+75.0198+150.162+76.0204C145.982+77.7812+141.985+78.5806+138.834+78.9256C144.156+87.137+146.079+98.0469+146.439+100.366L160.811+133.708C161.148+134.492+161.14+135.387+160.778+136.163C160.38+137.016+157.889+141.492+147.633+145.812C138.641+149.6+130.826+145.457+130.496+145.28C129.549+144.765+128.95+143.777+128.927+142.7L128.239+110.565C122.097+108.466+104.763+101.375+98.515+86.543C96.5733+81.9335+94.8728+76.4945+94.181+73.9923C93.6416+73.7267+92.477+73.3948+91.5888+73.1456C88.076+72.1515+82.7648+70.6454+79.8673+65.4561C78.3611+62.8955+75.0072+60.8064+73.8497+60.2202M91.2301+57.6278C92.1503+57.2402+92.5791+56.1817+92.1926+55.2642C91.8049+54.3439+90.7492+53.914+89.8289+54.3017C88.9087+54.6893+88.4799+55.7479+88.8664+56.6653C89.2529+57.5828+90.3098+58.0155+91.2301+57.6278Z" stroke-linejoin="round" fill="#ff8d26" stroke="#000000" opacity="1" stroke-linecap="butt" stroke-width="2"/>
<path d="M174.284+14.1008C171.749+15.0021+168.978+16.0646+165.965+17.3338C149.479+24.2788+135.828+34.8954+120.02+47.1874L119.558+47.5455C118.825+48.1152+118.087+48.6872+117.347+49.2632C116.557+48.891+115.661+48.4525+115.035+48.1059C124.109+35.1454+140.995+14.9317+163.358+5.51138C165.986+4.40448+168.657+3.46214+171.297+2.71195C172.227+2.44758+173.228+2.64612+173.986+3.24402C174.743+3.84192+175.17+4.76872+175.127+5.73645C174.991+8.77663+174.702+11.5453+174.284+14.1008Z" stroke="#000000" fill="#ff8d26" stroke-linejoin="round" stroke-linecap="butt" stroke-width="2" opacity="1"/>
<path d="M70.3276+48.6216C68.8179+48.6216+67.5891+51.2348+67.5894+54.4523C67.5894+55.1378+67.6957+55.7563+67.8074+56.3596C68.0826+56.2715+68.3297+56.281+68.5839+56.2233C68.4408+55.6678+68.3114+55.0909+68.3114+54.4115C68.3114+52.0146+69.2102+50.0793+70.3276+50.0793C71.445+50.0793+72.3438+52.0146+72.3438+54.4115C72.3438+54.7026+72.3013+54.9553+72.2757+55.2288C72.5327+55.1439+72.7733+55.1077+73.0114+55.0654C73.0222+54.8548+73.0659+54.6689+73.0659+54.4523L73.0659+53.4442C73.0659+52.1775+73.5341+51.1555+74.1285+51.1555C74.7228+51.1555+75.2044+52.1775+75.2047+53.4442L75.2047+54.4523C75.2047+57.6699+76.4197+60.2831+77.9293+60.283C79.439+60.283+80.6678+57.6698+80.6676+54.4523C80.6676+51.2348+79.439+48.6216+77.9293+48.6216C76.9546+48.6216+76.1008+49.7131+75.6134+51.3599C75.2924+50.3211+74.7466+49.6434+74.1285+49.6434C73.5103+49.6434+72.9642+50.3211+72.6436+51.3599C72.1562+49.7131+71.3024+48.6216+70.3276+48.6216ZM77.9293+50.0793C79.0467+50.0793+79.9591+52.0146+79.9592+54.4115C79.9592+56.8084+79.0468+58.7572+77.9293+58.7572C76.8119+58.7572+75.9131+56.8084+75.9131+54.4115C75.9131+52.0146+76.8119+50.0793+77.9293+50.0793Z" opacity="1" fill="#000000"/>
<g opacity="1">
<path opacity="1" d="M73.784+54.8581C73.8983+54.8581+74.0042+54.8312+74.1108+54.7907C74.1443+54.778+74.1825+54.7237+74.2093+54.7475C74.2335+54.769+74.1665+54.7965+74.141+54.8164C74.1252+54.8287+73.8475+55.0355+73.8481+55.038C73.8547+55.0662+74.0056+55.0056+74.0263+55.0044" fill="#ff8d26"/>
<path d="M73.7188+53.9375C73.2174+53.9733+72.8392+54.4362+72.875+54.9375C72.9108+55.4388+73.3424+55.8171+73.8438+55.7812C73.9325+55.4006+73.9352+55.2476+73.9375+55.375C73.9396+55.4876+73.943+55.6488+74.0312+55.7188C74.1028+55.7755+74.357+55.4552+74.375+55.4375C74.4291+55.3843+74.6038+55.3033+74.5312+55.2812C74.4814+55.2661+74.145+55.4493+74.1562+55.3438C74.165+55.2619+74.1782+55.1755+74.1875+55.0938C74.308+55.114+74.4331+55.1778+74.5312+55.0938C74.571+55.0597+74.6857+54.8207+74.6875+54.7812C74.698+54.7813+74.7082+54.7812+74.7188+54.7812C74.7201+54.7813+74.7187+54.7507+74.7188+54.75C74.7388+54.5514+74.6057+54.3737+74.4375+54.2812C74.3816+54.2505+74.3139+54.1644+74.2812+54.1875C74.2895+54.1802+74.2818+54.1489+74.2812+54.1562C74.2922+54.0506+73.8227+54.2096+73.7812+54.2188C73.7433+54.2271+73.8436+54.1639+73.8438+54.125C73.844+54.0724+73.7711+53.9483+73.7812+54C73.8134+54.1636+73.7718+53.9746+73.7188+53.9375ZM73.9375+54.4375C73.9823+54.4698+73.8993+54.6169+73.8438+54.75C73.8023+54.7499+73.7602+54.7503+73.7188+54.75C73.6972+54.7499+73.8624+54.3833+73.9375+54.4375ZM73.7188+54.7812C73.7607+54.7825+73.8017+54.7804+73.8438+54.7812C73.8166+54.8469+73.8277+54.8792+73.8125+54.9375C73.7844+54.8804+73.7188+54.8435+73.7188+54.7812ZM73.9062+55.0938C73.9076+55.1636+74.0553+55.0897+74.125+55.0938C74.1359+55.0944+74.1453+55.0924+74.1562+55.0938C74.1503+55.157+74.13+55.2179+74.125+55.2812C74.1189+55.3393+74.0198+55.247+73.9688+55.2188C73.929+55.1968+73.9412+55.1275+73.9062+55.0938Z" opacity="1" fill="#000000"/>
</g>
<path stroke="#000000" fill="none" stroke-linecap="round" opacity="1" stroke-width="2" d="M73.9816+54.7788L73.9816+54.7808L73.9816+54.7818L73.9816+54.7831L73.9816+54.7848L73.9816+54.7862L73.9816+54.7883L73.9816+54.7893L73.9816+54.7908L73.9816+54.7918L73.9816+54.7927L73.9816+54.7931L73.9816+54.7923L73.9816+54.7916L73.9809+54.7907L73.9807+54.7897L73.9807+54.7885L73.9807+54.7878L73.9807+54.7869L73.9807+54.7858L73.9807+54.7838L73.9807+54.7838" stroke-linejoin="round"/>
<path stroke-width="2" fill="none" stroke-linecap="round" stroke-linejoin="round" d="M73.1691+60.0747C73.2661+60.0747+73.3829+59.9554+73.4864+59.9275C73.7854+59.847+74.1248+59.7993+74.4292+59.7952C74.5767+59.7932+74.7572+59.7648+74.8947+59.8247C74.9469+59.8475+74.9826+59.8986+75.0345+59.9249C75.0374+59.9263+75.0845+59.9586+75.0842+59.9588C75.0806+59.9622+74.5394+59.8892+74.4783+59.8796C74.1488+59.8276+73.5206+59.9551+73.2505+60.1554C72.9871+60.3507+73.5945+60.1903+73.7018+60.1329C73.7424+60.1111+73.7936+60.1024+73.839+60.0926C73.8664+60.0866+73.9508+60.0884+73.9229+60.0884C73.7321+60.0884+73.6289+60.1435+73.6289+60.1927C73.6289+60.2084+73.6297+60.2051+73.6351+60.1976C73.6699+60.1494+74.0492+60.0786+74.1019+60.0697C74.6058+59.9847+75.1289+59.9647+75.6406+59.9926C75.7913+60.0008+76.4724+60.0659+76.5661+60.1767C76.5694+60.1806+76.5823+60.1957+76.5764+60.2025C76.534+60.2511+76.2071+60.1764+76.1952+60.1751C75.9016+60.1436+75.6069+60.1328+75.3179+60.0842C74.557+59.9564+73.7092+60.0765+72.9893+60.2979" opacity="1" stroke="#ff8d26"/>
</g>
</g>
</svg>
