<?xml version="1.0" encoding="UTF-8" standalone="no"?> <!-- Created with Vectornator for iOS (http://vectornator.io/) --><!DOCTYPE svg PUBLIC "-//W3C//DTD SVG 1.1//EN" "http://www.w3.org/Graphics/SVG/1.1/DTD/svg11.dtd">
<svg style="fill-rule:nonzero;clip-rule:evenodd;stroke-linecap:round;stroke-linejoin:round;" version="1.1" xmlns:xlink="http://www.w3.org/1999/xlink" viewBox="0 0 1920 1080" width="100%" height="100%" xmlns="http://www.w3.org/2000/svg" xmlns:vectornator="http://vectornator.io" xml:space="preserve">
<metadata>
<vectornator:setting key="WDUnits" value="Pixels"/>
<vectornator:setting value="false" key="WDSnapToEdges"/>
<vectornator:setting key="VNSnapToGuides" value="true"/>
<vectornator:setting key="WDDisplayWhiteBackground" value="true"/>
<vectornator:setting key="WDOutlineMode" value="false"/>
<vectornator:setting key="IsTimeLapseWatermarkDisabled" value="false"/>
<vectornator:setting key="VNDimensionsVisible" value="true"/>
<vectornator:setting value="true" key="WDCMYKEnabledKey"/>
<vectornator:setting value="false" key="WDIsolateActiveLayer"/>
<vectornator:setting value="false" key="UndoHistoryDisabled"/>
<vectornator:setting key="WDDynamicGuides" value="true"/>
<vectornator:setting key="WDRulersVisible" value="true"/>
<vectornator:setting value="true" key="WDGuidesVisible"/>
<vectornator:setting value="false" key="WDSnapToGrid"/>
<vectornator:setting value="false" key="WDSnapToPoints"/>
<vectornator:setting key="VNPencilOnly" value="false"/>
</metadata>
<defs/>
<g vectornator:layerName="Layer 1" id="Layer 1">
<g opacity="1">
<path opacity="1" d="M242.54+543.298L353.899+302.203L474.447+302.203L298.771+643.264L298.771+837.316L186.676+837.316L186.676+643.264L11+302.203L131.915+302.203L242.54+543.298Z" stroke="#000000" stroke-width="2" fill="#318013" stroke-linecap="round" stroke-linejoin="round"/>
<path stroke-linejoin="round" fill="#318013" opacity="1" d="M529.717+837.316C525.887+829.847+523.11+820.559+521.386+809.451C501.277+831.858+475.136+843.062+442.961+843.062C412.511+843.062+387.279+834.252+367.265+816.633C347.252+799.014+337.246+776.798+337.246+749.986C337.246+717.045+349.455+691.766+373.873+674.146C398.291+656.527+433.577+647.622+479.732+647.43L517.939+647.43L517.939+629.619C517.939+615.256+514.253+603.765+506.879+595.147C499.506+586.529+487.871+582.219+471.976+582.219C457.995+582.219+447.031+585.571+439.083+592.274C431.135+598.977+427.161+608.17+427.161+619.852L344.14+619.852C344.14+601.85+349.694+585.188+360.802+569.867C371.91+554.546+387.614+542.528+407.914+533.814C428.215+525.1+451.005+520.743+476.285+520.743C514.588+520.743+544.991+530.367+567.493+549.614C589.996+568.861+601.248+595.913+601.248+630.768L601.248+765.499C601.439+794.992+605.557+817.303+613.601+832.433L613.601+837.316L529.717+837.316ZM455.059+779.575C467.316+779.575+478.616+776.846+488.957+771.388C499.299+765.929+506.96+758.604+511.939+749.411L511.939+695.979L480.914+695.979C439.355+695.979+417.235+710.342+414.554+739.07L414.267+743.953C414.267+754.295+417.906+762.817+425.183+769.52C432.461+776.223+442.42+779.575+455.059+779.575Z" stroke-linecap="round" stroke="#000000" stroke-width="2"/>
<path stroke-linejoin="round" d="M648.415+837.316L648.415+587.39L602.164+587.39L602.164+526.489L648.415+526.489L648.415+500.06C648.415+465.204+658.421+438.153+678.435+418.906C698.448+399.659+726.457+390.035+762.461+390.035C773.952+390.035+788.029+391.95+804.69+395.78L803.829+460.129C796.934+458.405+788.507+457.544+778.549+457.544C747.332+457.544+731.723+472.195+731.723+501.496L731.723+526.489L833.992+526.489L833.992+503.22C834.184+466.641+845.531+438.632+868.034+419.193C890.537+399.754+921.993+390.035+962.402+390.035C989.98+390.035+1036.9+393.099+1103.17+399.228L1103.17+837.316L1019.86+837.316L1019.86+460.416C1003.39+458.501+987.969+457.544+973.606+457.544C936.069+457.544+917.301+473.535+917.301+505.518L917.301+526.489L979.064+526.489L979.064+587.39L917.301+587.39L917.301+837.316L833.992+837.316L833.992+587.39L731.723+587.39L731.723+837.316L648.415+837.316Z" fill="#318013" stroke-width="2" opacity="1" stroke="#000000" stroke-linecap="round"/>
<path fill="#318013" opacity="1" stroke-linejoin="round" stroke="#000000" stroke-linecap="round" stroke-width="2" d="M1281.58+843.062C1236+843.062+1198.9+829.081+1170.26+801.12C1141.63+773.159+1127.32+735.91+1127.32+689.372L1127.32+681.328C1127.32+650.111+1133.35+622.198+1145.42+597.588C1157.48+572.979+1174.57+554.019+1196.69+540.709C1218.81+527.398+1244.05+520.743+1272.39+520.743C1314.91+520.743+1348.37+534.149+1372.79+560.961C1397.21+587.773+1409.42+625.789+1409.42+675.008L1409.42+708.906L1211.49+708.906C1214.17+729.207+1222.26+745.485+1235.76+757.742C1249.26+769.999+1266.36+776.128+1287.04+776.128C1319.02+776.128+1344.02+764.541+1362.02+741.368L1402.81+787.044C1390.36+804.663+1373.51+818.404+1352.25+828.267C1330.99+838.13+1307.44+843.062+1281.58+843.062ZM1272.1+587.965C1255.63+587.965+1242.27+593.519+1232.03+604.627C1221.78+615.734+1215.22+631.63+1212.35+652.314L1327.83+652.314L1327.83+645.706C1327.45+627.321+1322.47+613.101+1312.89+603.047C1303.32+592.992+1289.72+587.965+1272.1+587.965Z"/>
</g>
<g opacity="1">
<path d="M1218.78+335.948C1227.7+332.189+1231.87+321.921+1228.12+313.013C1224.36+304.105+1214.11+299.914+1205.18+303.673C1203.54+304.344+1197.4+305.851+1191.98+307.201C1173.26+311.799+1138.44+320.387+1094.59+338.857C1085.67+342.616+1081.5+352.884+1085.25+361.792C1089.01+370.7+1099.27+374.891+1108.19+371.132C1149.5+353.729+1181.33+345.888+1200.35+341.201C1209.3+338.989+1214.73+337.655+1218.78+335.948Z" opacity="1" fill="#ff8d26" stroke-linejoin="round" stroke-width="2" stroke-linecap="butt" stroke="#000000"/>
<path opacity="1" d="M1205.18+303.673C1209.41+301.892+1213.88+296.399+1219.54+289.453C1231.16+275.173+1247.06+255.631+1281.45+241.144C1346.16+213.885+1393.01+263.39+1413.02+284.524C1415.08+286.698+1416.88+288.62+1417.55+289.323C1424.04+294.877+1437.91+301.289+1449.06+306.455C1454.11+308.793+1458.32+310.762+1461.86+312.538C1472.94+303.975+1483.79+295.53+1494.44+287.261C1584.52+217.203+1662.33+156.705+1754.04+118.072C1847.55+78.6784+1899.03+74.3439+1901.16+74.1686C1906.95+73.7217+1912.63+76.1942+1916.23+80.7762C1919.83+85.3581+1920.95+91.4261+1919.16+96.984C1874.54+236.383+1734.98+374.747+1687.38+406.047C1675.37+414.432+1662.26+421.646+1648.43+427.472C1624.1+437.723+1600.82+442.377+1582.48+444.386C1613.47+492.193+1624.66+555.71+1626.76+569.211L1710.43+763.328C1712.39+767.897+1712.34+773.105+1710.24+777.622C1707.92+782.588+1693.42+808.648+1633.71+833.8C1581.36+855.853+1535.86+831.736+1533.94+830.701C1528.42+827.705+1524.93+821.953+1524.8+815.682L1520.8+628.592C1485.04+616.37+1384.12+575.087+1347.74+488.735C1336.44+461.898+1326.54+430.232+1322.51+415.664C1319.37+414.118+1312.59+412.185+1307.42+410.735C1286.97+404.947+1256.04+396.178+1239.17+365.966C1230.41+351.058+1210.88+338.895+1204.14+335.483M1305.33+320.39C1310.69+318.133+1313.18+311.97+1310.93+306.629C1308.68+301.271+1302.53+298.768+1297.17+301.025C1291.81+303.282+1289.32+309.444+1291.57+314.786C1293.82+320.128+1299.97+322.647+1305.33+320.39Z" stroke-linejoin="round" fill="#ff8d26" stroke-linecap="butt" stroke-width="2" stroke="#000000"/>
<path opacity="1" stroke-linejoin="round" stroke-width="2" fill="#ff8d26" stroke-linecap="butt" stroke="#000000" d="M1788.87+66.974C1774.11+72.2215+1757.98+78.4079+1740.44+85.7972C1644.45+126.231+1564.98+188.041+1472.95+259.605L1470.25+261.69C1465.99+265.007+1461.69+268.337+1457.38+271.69C1452.78+269.523+1447.57+266.971+1443.92+264.953C1496.75+189.496+1595.06+71.812+1725.26+16.9665C1740.56+10.5221+1756.11+5.03578+1771.48+0.668144C1776.9-0.871024+1782.72+0.284901+1787.13+3.76588C1791.54+7.24686+1794.03+12.6427+1793.78+18.2769C1792.99+35.9769+1791.3+52.0963+1788.87+66.974Z"/>
<path d="M1183.63+267.955C1174.84+267.955+1167.69+283.169+1167.69+301.902C1167.69+305.893+1168.31+309.494+1168.96+313.006C1170.56+312.493+1172+312.548+1173.48+312.213C1172.65+308.979+1171.9+305.62+1171.9+301.664C1171.9+287.709+1177.13+276.442+1183.63+276.442C1190.14+276.442+1195.37+287.709+1195.37+301.664C1195.37+303.359+1195.12+304.83+1194.98+306.423C1196.47+305.928+1197.87+305.718+1199.26+305.471C1199.32+304.245+1199.58+303.163+1199.58+301.902L1199.58+296.033C1199.58+288.658+1202.3+282.708+1205.76+282.708C1209.22+282.708+1212.03+288.657+1212.03+296.033L1212.03+301.902C1212.03+320.634+1219.1+335.849+1227.89+335.848C1236.68+335.848+1243.83+320.634+1243.83+301.902C1243.83+283.169+1236.68+267.955+1227.89+267.955C1222.22+267.955+1217.25+274.31+1214.41+283.898C1212.54+277.85+1209.36+273.904+1205.76+273.904C1202.16+273.904+1198.98+277.85+1197.12+283.898C1194.28+274.31+1189.31+267.955+1183.63+267.955ZM1227.89+276.442C1234.4+276.442+1239.71+287.709+1239.71+301.664C1239.71+315.619+1234.4+326.965+1227.89+326.965C1221.39+326.965+1216.15+315.619+1216.15+301.664C1216.15+287.709+1221.39+276.442+1227.89+276.442Z" opacity="1" fill="#000000"/>
<g opacity="1">
<path opacity="1" d="M1203.76+304.265C1204.42+304.265+1205.04+304.108+1205.66+303.872C1205.85+303.798+1206.08+303.482+1206.23+303.62C1206.37+303.745+1205.98+303.905+1205.84+304.021C1205.74+304.093+1204.13+305.297+1204.13+305.312C1204.17+305.476+1205.05+305.123+1205.17+305.116" fill="#ff8d26"/>
<path d="M1205.81+303.062C1205.5+303.115+1205.18+303.242+1204.81+303.281C1204.57+303.306+1204.52+303.328+1204.28+303.344C1204.19+303.349+1204.02+303.29+1204.03+303.375C1204.09+303.693+1204.01+303.351+1203.72+303.344C1203.22+303.362+1202.83+303.81+1202.84+304.312C1202.86+304.815+1203.28+305.206+1203.78+305.188C1204.06+305.176+1203.94+305.191+1204.06+305.188C1204.04+305.212+1204.01+305.231+1204+305.25C1203.95+305.391+1204.14+305.333+1204.25+305.344C1204.25+305.362+1204.25+305.358+1204.28+305.406C1204.28+305.409+1204.31+305.377+1204.31+305.375C1204.64+305.347+1205.1+305.167+1205.06+305.156C1204.88+305.105+1205.05+305.168+1205.16+305.125C1205.03+304.97+1205.13+305.087+1205.03+304.969C1205.14+304.908+1205.27+304.87+1205.38+304.812C1205.58+304.702+1207.4+303.995+1206.75+303.375C1206.42+303.058+1206.12+303.01+1205.81+303.062ZM1204.97+305C1204.99+305.045+1205.04+305.077+1205.06+305.125C1205.09+305.19+1204.91+305.145+1204.84+305.156C1204.78+305.166+1204.72+305.178+1204.66+305.188C1204.67+305.181+1204.68+305.163+1204.69+305.156C1204.78+305.108+1204.87+305.052+1204.97+305Z" opacity="1" fill="#000000"/>
</g>
<path d="M1204.91+303.803L1204.91+303.814L1204.91+303.82L1204.91+303.827L1204.91+303.838L1204.91+303.845L1204.91+303.858L1204.91+303.864L1204.91+303.873L1204.91+303.878L1204.91+303.884L1204.91+303.886L1204.91+303.881L1204.91+303.877L1204.9+303.872L1204.9+303.866L1204.9+303.859L1204.9+303.855L1204.9+303.85L1204.9+303.844L1204.9+303.832L1204.9+303.832" stroke-linejoin="round" fill="none" stroke="#000000" stroke-width="2" stroke-linecap="round" opacity="1"/>
<path stroke-linejoin="round" stroke="#ff8d26" d="M1200.18+334.635C1200.74+334.635+1201.42+333.941+1202.02+333.779C1203.77+333.31+1205.74+333.032+1207.51+333.008C1208.37+332.996+1209.42+332.831+1210.22+333.18C1210.53+333.313+1210.74+333.61+1211.04+333.763C1211.05+333.772+1211.33+333.959+1211.33+333.961C1211.31+333.98+1208.16+333.556+1207.8+333.499C1205.88+333.197+1202.22+333.939+1200.65+335.105C1199.12+336.242+1202.65+335.308+1203.28+334.974C1203.52+334.847+1203.81+334.797+1204.08+334.739C1204.24+334.705+1204.73+334.715+1204.57+334.715C1203.46+334.715+1202.85+335.036+1202.85+335.322C1202.85+335.414+1202.86+335.395+1202.89+335.351C1203.09+335.071+1205.3+334.658+1205.61+334.606C1208.54+334.111+1211.59+333.995+1214.57+334.157C1215.44+334.205+1219.41+334.584+1219.96+335.229C1219.97+335.252+1220.05+335.34+1220.01+335.38C1219.77+335.662+1217.86+335.228+1217.8+335.22C1216.09+335.037+1214.37+334.973+1212.69+334.691C1208.26+333.947+1203.32+334.646+1199.13+335.935" stroke-width="2" opacity="1" stroke-linecap="round" fill="none"/>
</g>
</g>
</svg>
