<?xml version="1.0" encoding="UTF-8" standalone="no"?> <!-- Created with Vectornator for iOS (http://vectornator.io/) --><!DOCTYPE svg PUBLIC "-//W3C//DTD SVG 1.1//EN" "http://www.w3.org/Graphics/SVG/1.1/DTD/svg11.dtd">
<svg style="fill-rule:nonzero;clip-rule:evenodd;stroke-linecap:round;stroke-linejoin:round;" xml:space="preserve" xmlns:xlink="http://www.w3.org/1999/xlink" viewBox="0 0 1920 541" height="100%" version="1.1" xmlns:vectornator="http://vectornator.io" width="100%" xmlns="http://www.w3.org/2000/svg">
<metadata>
<vectornator:setting value="false" key="WDIsolateActiveLayer"/>
<vectornator:setting value="false" key="WDSnapToPoints"/>
<vectornator:setting key="IsTimeLapseWatermarkDisabled" value="false"/>
<vectornator:setting key="VNPencilOnly" value="false"/>
<vectornator:setting value="true" key="WDGuidesVisible"/>
<vectornator:setting key="WDSnapToGrid" value="true"/>
<vectornator:setting key="UndoHistoryDisabled" value="false"/>
<vectornator:setting value="Pixels" key="WDUnits"/>
<vectornator:setting value="true" key="WDRulersVisible"/>
<vectornator:setting value="true" key="VNDimensionsVisible"/>
<vectornator:setting value="false" key="WDDisplayWhiteBackground"/>
<vectornator:setting key="WDCMYKEnabledKey" value="false"/>
<vectornator:setting key="WDDynamicGuides" value="false"/>
<vectornator:setting value="true" key="VNSnapToGuides"/>
<vectornator:setting key="WDOutlineMode" value="false"/>
<vectornator:setting key="WDSnapToEdges" value="true"/>
</metadata>
<defs/>
<g vectornator:layerName="Layer 1" id="Layer 1">
<g opacity="1">
<path stroke-linecap="round" fill="#318013" d="M751.778+241.388L863.137+1.33268L983.685+1.33268L808.009+340.923L808.009+534.138L695.914+534.138L695.914+340.923L520.238+1.33268L641.153+1.33268L751.778+241.388Z" stroke-linejoin="round" stroke="#000000" opacity="1" stroke-width="2"/>
<path stroke-linecap="round" stroke-linejoin="round" d="M1038.96+534.138C1035.13+526.702+1032.35+517.453+1030.62+506.393C1010.52+528.704+984.374+539.859+952.199+539.859C921.749+539.859+896.517+531.087+876.503+513.544C856.49+496.001+846.484+473.881+846.484+447.185C846.484+414.386+858.693+389.215+883.111+371.672C907.529+354.129+942.815+345.262+988.97+345.071L1027.18+345.071L1027.18+327.337C1027.18+313.035+1023.49+301.594+1016.12+293.013C1008.74+284.432+997.11+280.142+981.214+280.142C967.233+280.142+956.269+283.479+948.321+290.153C940.373+296.827+936.4+305.98+936.4+317.612L853.378+317.612C853.378+299.687+858.932+283.097+870.04+267.842C881.148+252.587+896.852+240.622+917.152+231.945C937.453+223.269+960.243+218.931+985.523+218.931C1023.83+218.931+1054.23+228.513+1076.73+247.677C1099.23+266.841+1110.49+293.776+1110.49+328.481L1110.49+462.63C1110.68+491.996+1114.79+514.212+1122.84+529.276L1122.84+534.138L1038.96+534.138ZM964.298+476.646C976.554+476.646+987.854+473.929+998.196+468.494C1008.54+463.059+1016.2+455.766+1021.18+446.613L1021.18+393.411L990.152+393.411C948.593+393.411+926.473+407.712+923.792+436.315L923.505+441.178C923.505+451.475+927.144+459.961+934.421+466.635C941.699+473.309+951.658+476.646+964.298+476.646Z" stroke-width="2" opacity="1" fill="#318013" stroke="#000000"/>
<path stroke-width="2" opacity="1" fill="#318013" stroke-linejoin="round" stroke="#000000" d="M1157.65+534.138L1157.65+285.29L1111.4+285.29L1111.4+224.651L1157.65+224.651L1157.65+198.336C1157.65+163.631+1167.66+136.697+1187.67+117.532C1207.69+98.3682+1235.69+88.7861+1271.7+88.7861C1283.19+88.7861+1297.27+90.693+1313.93+94.5067L1313.07+158.578C1306.17+156.862+1297.75+156.004+1287.79+156.004C1256.57+156.004+1240.96+170.591+1240.96+199.767L1240.96+224.651L1343.23+224.651L1343.23+201.483C1343.42+165.061+1354.77+137.173+1377.27+117.818C1399.77+98.4635+1431.23+88.7861+1471.64+88.7861C1499.22+88.7861+1546.14+91.8371+1612.4+97.9391L1612.4+534.138L1529.09+534.138L1529.09+158.864C1512.62+156.957+1497.21+156.004+1482.84+156.004C1445.31+156.004+1426.54+171.926+1426.54+203.771L1426.54+224.651L1488.3+224.651L1488.3+285.29L1426.54+285.29L1426.54+534.138L1343.23+534.138L1343.23+285.29L1240.96+285.29L1240.96+534.138L1157.65+534.138Z" stroke-linecap="round"/>
<path stroke-width="2" fill="#318013" d="M1790.82+539.859C1745.24+539.859+1708.13+525.939+1679.5+498.098C1650.87+470.258+1636.56+433.169+1636.56+386.832L1636.56+378.823C1636.56+347.741+1642.59+319.948+1654.65+295.444C1666.72+270.941+1683.81+252.063+1705.93+238.81C1728.05+225.557+1753.28+218.931+1781.63+218.931C1824.14+218.931+1857.61+232.279+1882.03+258.975C1906.45+285.672+1918.66+323.523+1918.66+372.53L1918.66+406.282L1720.73+406.282C1723.41+426.495+1731.5+442.703+1745+454.908C1758.5+467.112+1775.6+473.214+1796.28+473.214C1828.26+473.214+1853.25+461.677+1871.26+438.604L1912.05+484.083C1899.6+501.626+1882.75+515.308+1861.49+525.128C1840.23+534.949+1816.67+539.859+1790.82+539.859ZM1781.34+285.862C1764.87+285.862+1751.51+291.392+1741.27+302.452C1731.02+313.512+1724.46+329.339+1721.59+349.934L1837.07+349.934L1837.07+343.355C1836.69+325.049+1831.71+310.89+1822.13+300.879C1812.56+290.868+1798.96+285.862+1781.34+285.862Z" stroke-linecap="round" stroke-linejoin="round" opacity="1" stroke="#000000"/>
</g>
<g opacity="1">
<path fill="#ff8d26" stroke="#000000" stroke-linejoin="round" opacity="1" d="M87.2007+214.666C92.9258+212.254+95.5998+205.666+93.1924+199.952C90.7851+194.237+84.2035+191.548+78.4784+193.96C77.4284+194.39+73.4838+195.357+70.0089+196.223C58.0009+199.173+35.6613+204.682+7.53247+216.532C1.80731+218.943-0.866652+225.531+1.5407+231.246C3.94805+236.96+10.5296+239.649+16.2548+237.237C42.7582+226.073+63.1786+221.043+75.3817+218.035C81.1229+216.616+84.6021+215.76+87.2007+214.666Z" stroke-width="2" stroke-linecap="butt"/>
<path stroke-linecap="butt" fill="#ff8d26" opacity="1" stroke-width="2" d="M78.4784+193.96C81.1908+192.817+84.0582+189.293+87.6911+184.837C95.1442+175.676+105.344+163.139+127.406+153.845C168.921+136.357+198.976+168.117+211.819+181.675C213.138+183.069+214.291+184.302+214.725+184.754C218.883+188.317+227.784+192.43+234.934+195.745C238.174+197.244+240.876+198.508+243.148+199.647C250.257+194.154+257.215+188.736+264.049+183.431C321.84+138.486+371.756+99.6735+430.591+74.8892C490.586+49.6164+523.608+46.8356+524.975+46.7231C528.694+46.4364+532.336+48.0226+534.647+50.9621C536.958+53.9017+537.672+57.7945+536.529+61.3602C507.899+150.79+418.369+239.557+387.832+259.637C380.126+265.016+371.715+269.644+362.842+273.382C347.23+279.958+332.299+282.944+320.53+284.233C340.411+314.903+347.592+355.652+348.937+364.314L402.616+488.847C403.875+491.779+403.844+495.12+402.492+498.018C401.006+501.203+391.702+517.922+353.396+534.058C319.812+548.206+290.621+532.734+289.39+532.07C285.85+530.148+283.613+526.458+283.527+522.435L280.959+402.409C258.017+394.568+193.273+368.083+169.937+312.685C162.684+295.468+156.333+275.153+153.749+265.806C151.734+264.814+147.385+263.575+144.067+262.644C130.947+258.931+111.109+253.306+100.286+233.923C94.6607+224.359+82.1337+216.556+77.8104+214.367M142.727+204.684C146.164+203.236+147.766+199.283+146.322+195.856C144.874+192.419+140.931+190.813+137.494+192.261C134.057+193.709+132.455+197.662+133.899+201.089C135.342+204.516+139.29+206.132+142.727+204.684Z" stroke="#000000" stroke-linejoin="round"/>
<path stroke-linecap="butt" fill="#ff8d26" d="M452.938+42.1075C443.47+45.474+433.123+49.4428+421.869+54.1834C360.29+80.1234+309.303+119.777+250.261+165.688L248.532+167.026C245.796+169.154+243.039+171.29+240.276+173.442C237.326+172.051+233.978+170.414+231.641+169.119C265.531+120.711+328.603+45.2113+412.13+10.0256C421.944+5.89126+431.92+2.37155+441.784-0.430465C445.257-1.41791+448.995-0.676332+451.825+1.55686C454.655+3.79005+456.247+7.25172+456.088+10.8663C455.581+22.2216+454.5+32.5628+452.938+42.1075Z" stroke-linejoin="round" opacity="1" stroke="#000000" stroke-width="2"/>
<path d="M64.6551+171.045C59.0163+171.045+54.4267+180.806+54.4276+192.823C54.4276+195.384+54.8246+197.694+55.2417+199.947C56.27+199.618+57.1928+199.654+58.1421+199.438C57.6077+197.364+57.1245+195.209+57.1244+192.671C57.1244+183.718+60.4814+176.49+64.6551+176.49C68.8287+176.49+72.1858+183.718+72.1859+192.671C72.1859+193.758+72.0269+194.702+71.9314+195.724C72.8914+195.406+73.79+195.271+74.6791+195.113C74.7196+194.327+74.8827+193.632+74.8827+192.823L74.8827+189.058C74.8827+184.327+76.6315+180.51+78.8516+180.51C81.0716+180.51+82.8703+184.327+82.8713+189.058L82.8713+192.823C82.8713+204.841+87.4095+214.602+93.048+214.601C98.6868+214.601+103.276+204.841+103.276+192.823C103.276+180.806+98.6869+171.045+93.048+171.045C89.4072+171.045+86.2183+175.122+84.3978+181.273C83.199+177.393+81.1602+174.862+78.8516+174.862C76.5428+174.862+74.5031+177.393+73.3053+181.273C71.4849+175.122+68.2961+171.045+64.6551+171.045ZM93.048+176.49C97.2216+176.49+100.63+183.718+100.63+192.671C100.63+201.623+97.2218+208.903+93.048+208.903C88.8744+208.903+85.5172+201.623+85.5173+192.671C85.5173+183.718+88.8744+176.49+93.048+176.49Z" fill="#000000" opacity="1"/>
<g opacity="1">
<path opacity="1" fill="#ff8d26" d="M77.5648+194.339C77.9917+194.339+78.3873+194.239+78.7855+194.087C78.9107+194.04+79.0532+193.837+79.1534+193.926C79.2437+194.006+78.9934+194.109+78.8983+194.183C78.8395+194.229+77.8021+195.002+77.8042+195.011C77.8291+195.116+78.3926+194.89+78.4698+194.886"/>
<path d="M79+193.344C78.8191+193.35+78.666+193.419+78.5312+193.406C78.408+193.394+78.28+193.432+78.1562+193.438C78.0527+193.442+77.8696+193.337+77.8438+193.438C77.7837+193.67+77.8592+193.452+77.5+193.438C76.9987+193.473+76.6204+193.905+76.6562+194.406C76.6921+194.908+77.1237+195.286+77.625+195.25C78.0453+195.071+78.9389+194.335+78.0625+195.062C77.7988+195.281+78.8472+194.858+79.0312+194.75C79.1132+194.702+79.1865+194.631+79.25+194.562C79.5428+194.421+79.7642+194.226+79.7188+193.875C79.7131+193.831+79.7229+193.69+79.6875+193.656C79.4099+193.39+79.1809+193.337+79+193.344Z" fill="#000000" opacity="1"/>
</g>
<path d="M78.303+194.043L78.303+194.05L78.303+194.054L78.303+194.059L78.303+194.065L78.303+194.07L78.303+194.078L78.303+194.082L78.303+194.088L78.303+194.091L78.303+194.095L78.303+194.096L78.303+194.093L78.303+194.091L78.3004+194.087L78.2995+194.084L78.2995+194.079L78.2995+194.077L78.2995+194.073L78.2995+194.069L78.2995+194.062L78.2995+194.062" stroke-linejoin="round" stroke="#000000" stroke-linecap="round" fill="none" opacity="1" stroke-width="2"/>
<path fill="none" stroke-linejoin="round" opacity="1" d="M75.2682+213.823C75.6306+213.823+76.0669+213.378+76.4533+213.274C77.5701+212.973+78.8377+212.795+79.9749+212.779C80.5258+212.772+81.1997+212.666+81.7136+212.89C81.9085+212.975+82.0419+213.166+82.2355+213.264C82.2465+213.269+82.4222+213.39+82.4212+213.391C82.4079+213.403+80.3864+213.131+80.1582+213.095C78.9273+212.9+76.5813+213.377+75.5723+214.125C74.5884+214.854+76.8573+214.255+77.2578+214.041C77.4097+213.959+77.6009+213.927+77.7705+213.89C77.8726+213.868+78.1881+213.875+78.0836+213.875C77.3711+213.875+76.9855+214.08+76.9855+214.264C76.9855+214.323+76.9886+214.311+77.009+214.282C77.1386+214.103+78.5556+213.838+78.7522+213.805C80.6345+213.487+82.5881+213.413+84.4993+213.517C85.0622+213.547+87.6065+213.79+87.9564+214.205C87.9686+214.219+88.0168+214.276+87.9947+214.301C87.8365+214.482+86.6155+214.203+86.5708+214.199C85.4743+214.081+84.3736+214.04+83.2943+213.859C80.4521+213.381+77.2857+213.83+74.5965+214.657" stroke-linecap="round" stroke="#ff8d26" stroke-width="2"/>
</g>
</g>
</svg>
