<?xml version="1.0" encoding="UTF-8" standalone="no"?> <!-- Created with Vectornator for iOS (http://vectornator.io/) --><!DOCTYPE svg PUBLIC "-//W3C//DTD SVG 1.1//EN" "http://www.w3.org/Graphics/SVG/1.1/DTD/svg11.dtd">
<svg xml:space="preserve" height="100%" xmlns="http://www.w3.org/2000/svg" width="100%" style="fill-rule:nonzero;clip-rule:evenodd;stroke-linecap:round;stroke-linejoin:round;" version="1.1" xmlns:vectornator="http://vectornator.io" xmlns:xlink="http://www.w3.org/1999/xlink" viewBox="0 0 1280 720">
<metadata>
<vectornator:setting key="WDDisplayWhiteBackground" value="false"/>
<vectornator:setting key="WDSnapToEdges" value="false"/>
<vectornator:setting value="false" key="WDSnapToPoints"/>
<vectornator:setting key="WDIsolateActiveLayer" value="false"/>
<vectornator:setting key="WDGuidesVisible" value="true"/>
<vectornator:setting value="false" key="VNPencilOnly"/>
<vectornator:setting value="true" key="WDRulersVisible"/>
<vectornator:setting key="WDOutlineMode" value="false"/>
<vectornator:setting key="WDUnits" value="Pixels"/>
<vectornator:setting value="false" key="WDCMYKEnabledKey"/>
<vectornator:setting key="WDSnapToGrid" value="false"/>
<vectornator:setting value="false" key="UndoHistoryDisabled"/>
<vectornator:setting key="IsTimeLapseWatermarkDisabled" value="false"/>
<vectornator:setting key="VNSnapToGuides" value="true"/>
<vectornator:setting value="false" key="WDDynamicGuides"/>
<vectornator:setting value="true" key="VNDimensionsVisible"/>
</metadata>
<defs/>
<g id="Layer 1" vectornator:layerName="Layer 1">
<g opacity="1">
<path fill="#318013" opacity="1" d="M224.069+333.911L323.109+119.488L430.32+119.488L274.079+422.818L274.079+595.402L174.386+595.402L174.386+422.818L18.1449+119.488L125.683+119.488L224.069+333.911Z" stroke-linecap="round" stroke-linejoin="round" stroke="#000000" stroke-width="2"/>
<path stroke="#000000" stroke-linejoin="round" stroke-width="2" d="M479.476+595.402C476.07+588.759+473.6+580.498+472.067+570.619C454.183+590.548+430.933+600.512+402.318+600.512C375.236+600.512+352.796+592.677+334.996+577.007C317.197+561.337+308.298+541.579+308.298+517.733C308.298+488.437+319.156+465.954+340.873+450.283C362.589+434.613+393.972+426.693+435.021+426.523L469.001+426.523L469.001+410.682C469.001+397.908+465.722+387.688+459.165+380.024C452.607+372.359+442.26+368.527+428.123+368.527C415.689+368.527+405.938+371.507+398.869+377.469C391.8+383.43+388.266+391.606+388.266+401.996L314.429+401.996C314.429+385.985+319.369+371.167+329.248+357.54C339.127+343.914+353.094+333.226+371.148+325.476C389.203+317.727+409.472+313.852+431.955+313.852C466.02+313.852+493.06+322.411+513.073+339.528C533.087+356.646+543.093+380.705+543.093+411.704L543.093+531.529C543.264+557.76+546.926+577.603+554.079+591.059L554.079+595.402L479.476+595.402ZM413.078+544.048C423.979+544.048+434.028+541.621+443.226+536.767C452.423+531.913+459.236+525.398+463.665+517.222L463.665+469.701L436.072+469.701C399.111+469.701+379.438+482.475+377.054+508.024L376.798+512.368C376.798+521.565+380.034+529.145+386.507+535.106C392.979+541.068+401.836+544.048+413.078+544.048Z" opacity="1" fill="#318013" stroke-linecap="round"/>
<path stroke-linejoin="round" d="M585.042+595.402L585.042+373.125L543.908+373.125L543.908+318.961L585.042+318.961L585.042+295.456C585.042+264.457+593.942+240.398+611.741+223.28C629.54+206.162+654.45+197.604+686.472+197.604C696.691+197.604+709.21+199.307+724.029+202.713L723.262+259.943C717.131+258.41+709.636+257.644+700.779+257.644C673.016+257.644+659.134+270.674+659.134+296.734L659.134+318.961L750.089+318.961L750.089+298.267C750.259+265.734+760.351+240.824+780.364+223.536C800.378+206.248+828.354+197.604+864.293+197.604C888.82+197.604+930.55+200.329+989.483+205.779L989.483+595.402L915.391+595.402L915.391+260.199C900.743+258.495+887.032+257.644+874.257+257.644C840.873+257.644+824.181+271.866+824.181+300.311L824.181+318.961L879.111+318.961L879.111+373.125L824.181+373.125L824.181+595.402L750.089+595.402L750.089+373.125L659.134+373.125L659.134+595.402L585.042+595.402Z" opacity="1" stroke="#000000" stroke-width="2" stroke-linecap="round" fill="#318013"/>
<path stroke="#000000" fill="#318013" stroke-width="2" stroke-linecap="round" stroke-linejoin="round" d="M1148.16+600.512C1107.62+600.512+1074.62+588.078+1049.16+563.21C1023.7+538.342+1010.96+505.214+1010.96+463.824L1010.96+456.671C1010.96+428.907+1016.33+404.082+1027.06+382.195C1037.79+360.308+1052.99+343.446+1072.66+331.608C1092.34+319.77+1114.78+313.852+1139.99+313.852C1177.8+313.852+1207.56+325.775+1229.28+349.62C1251+373.466+1261.86+407.276+1261.86+451.05L1261.86+481.198L1085.82+481.198C1088.21+499.252+1095.4+513.73+1107.41+524.631C1119.42+535.532+1134.62+540.983+1153.02+540.983C1181.46+540.983+1203.69+530.678+1219.7+510.068L1255.98+550.691C1244.91+566.361+1229.92+578.582+1211.01+587.354C1192.11+596.126+1171.16+600.512+1148.16+600.512ZM1139.73+373.636C1125.08+373.636+1113.2+378.576+1104.09+388.455C1094.98+398.334+1089.14+412.471+1086.59+430.866L1189.3+430.866L1189.3+424.99C1188.96+408.639+1184.53+395.992+1176.01+387.05C1167.49+378.107+1155.4+373.636+1139.73+373.636Z" opacity="1"/>
</g>
</g>
</svg>
